<svg width="0" height="0" class="hidden">
  <symbol viewBox="0 0 11 20" fill="none" xmlns="http://www.w3.org/2000/svg" id="Vector (5)">
    <path d="M8.33 3.32h1.827V.14A23.579 23.579 0 0 0 7.497 0C4.864 0 3.06 1.656 3.06 4.7v2.8H.156v3.555H3.06V20h3.561v-8.944H9.41L9.852 7.5h-3.23V5.05c0-1.027.277-1.73 1.709-1.73z" fill="#AFB1B8"></path>
  </symbol>
  <symbol viewBox="0 0 5 14" fill="none" xmlns="http://www.w3.org/2000/svg" id="Vector (6)">
    <path d="M.33.647h4.147V14H.33V.647z" fill="#AFB1B8"></path>
  </symbol>
  <symbol viewBox="0 0 13 14" fill="none" xmlns="http://www.w3.org/2000/svg" id="Vector (7)">
    <path d="M12.995 14H13V6.663C13 3.076 12.227.312 8.033.312c-2.017 0-3.37 1.106-3.923 2.156h-.058V.647H.074v13.352h4.142V7.388c0-1.741.33-3.425 2.486-3.425 2.124 0 2.155 1.987 2.155 3.536V14h4.138z" fill="#AFB1B8"></path>
  </symbol>
  <symbol viewBox="0 0 5 14" fill="none" xmlns="http://www.w3.org/2000/svg" id="Vector (8)">
    <path d="M.33.647h4.147V14H.33V.647z" fill="#AFB1B8"></path>
  </symbol>
  <symbol viewBox="0 0 13 14" fill="none" xmlns="http://www.w3.org/2000/svg" id="Vector (9)">
    <path d="M12.995 14H13V6.663C13 3.076 12.227.312 8.033.312c-2.017 0-3.37 1.106-3.923 2.156h-.058V.647H.074v13.352h4.142V7.388c0-1.741.33-3.425 2.486-3.425 2.124 0 2.155 1.987 2.155 3.536V14h4.138z" fill="#AFB1B8"></path>
  </symbol>
  <symbol viewBox="0 0 20 18" fill="none" xmlns="http://www.w3.org/2000/svg" id="Vector (10)">
    <path d="M20 2.799a8.549 8.549 0 0 1-2.363.647 4.077 4.077 0 0 0 1.804-2.266 8.192 8.192 0 0 1-2.6.992A4.099 4.099 0 0 0 9.75 4.976c0 .325.027.638.095.935-3.409-.166-6.425-1.8-8.451-4.288A4.128 4.128 0 0 0 .83 3.694a4.11 4.11 0 0 0 1.821 3.408A4.05 4.05 0 0 1 .8 6.598v.045a4.119 4.119 0 0 0 3.285 4.028 4.09 4.09 0 0 1-1.075.135c-.262 0-.527-.015-.776-.07.531 1.624 2.038 2.818 3.831 2.856a8.238 8.238 0 0 1-5.084 1.75A7.67 7.67 0 0 1 0 15.284a11.543 11.543 0 0 0 6.29 1.84c7.545 0 11.67-6.25 11.67-11.668 0-.18-.006-.356-.015-.53A8.179 8.179 0 0 0 20 2.8z" fill="#AFB1B8"></path>
  </symbol>
  <symbol viewBox="0 0 20 20" fill="none" xmlns="http://www.w3.org/2000/svg" id="Vector (11)">
    <path d="M19.98 5.88c-.046-1.063-.218-1.793-.464-2.426a4.88 4.88 0 0 0-1.157-1.774 4.922 4.922 0 0 0-1.77-1.153C15.952.281 15.226.11 14.163.063 13.093.012 12.753 0 10.037 0 7.322 0 6.982.012 5.915.059 4.853.105 4.122.277 3.49.523A4.88 4.88 0 0 0 1.715 1.68 4.924 4.924 0 0 0 .563 3.45C.316 4.087.145 4.813.098 5.876c-.051 1.07-.063 1.41-.063 4.126 0 2.715.012 3.055.059 4.122.047 1.063.219 1.793.465 2.426a4.932 4.932 0 0 0 1.156 1.774 4.92 4.92 0 0 0 1.77 1.152c.637.247 1.364.419 2.426.465 1.067.047 1.407.059 4.122.059 2.716 0 3.056-.012 4.122-.059 1.063-.046 1.793-.218 2.426-.464a5.116 5.116 0 0 0 2.927-2.927c.246-.637.418-1.364.465-2.426.047-1.067.058-1.407.058-4.122s-.004-3.055-.05-4.122zm-1.8 8.166c-.044.977-.208 1.504-.344 1.856a3.318 3.318 0 0 1-1.9 1.898c-.35.137-.882.301-1.855.344-1.055.047-1.371.059-4.04.059-2.668 0-2.989-.012-4.04-.059-.977-.043-1.504-.207-1.856-.344a3.077 3.077 0 0 1-1.148-.746 3.11 3.11 0 0 1-.747-1.148c-.136-.352-.3-.883-.343-1.856-.047-1.055-.059-1.372-.059-4.04 0-2.669.012-2.99.059-4.04.043-.977.207-1.504.343-1.856A3.04 3.04 0 0 1 3 2.965a3.105 3.105 0 0 1 1.15-.746c.35-.137.882-.3 1.855-.344 1.055-.046 1.372-.058 4.04-.058 2.672 0 2.989.012 4.04.058.977.043 1.504.207 1.856.344.433.16.828.414 1.148.746.332.325.586.715.747 1.15.136.35.3.882.343 1.855.047 1.055.059 1.371.059 4.04 0 2.668-.012 2.98-.059 4.036z" fill="#fff"></path>
  </symbol>
</svg>